<svg version="1.1" id="Layer_1" xmlns="http://www.w3.org/2000/svg" xmlns:xlink="http://www.w3.org/1999/xlink" x="0px" y="0px"
	 width="100%" viewBox="0 0 2000 1307" enable-background="new 0 0 2000 1307" xml:space="preserve">
<path fill="#FFFFFF" opacity="1.000000" stroke="none" 
	d="
M1261.000000,1308.000000 
	C840.666809,1308.000000 420.833588,1308.000000 1.000282,1308.000000 
	C1.000188,872.333618 1.000188,436.667175 1.000094,1.000574 
	C667.666199,1.000383 1334.332397,1.000383 2000.999023,1.000191 
	C2000.999268,436.666107 2000.999268,872.332214 2000.999634,1307.999146 
	C1754.500000,1308.000000 1508.000000,1308.000000 1261.000000,1308.000000 
M700.544128,703.150940 
	C701.496643,702.848877 702.448059,702.543152 703.401917,702.245239 
	C737.816772,691.495605 753.076477,654.815002 738.021362,622.561218 
	C728.724487,602.643860 711.639404,591.598877 689.002441,589.901489 
	C680.792603,589.286011 672.046326,588.674438 664.665588,585.475403 
	C641.404541,575.393188 628.676453,557.143921 627.822937,531.527161 
	C627.357178,517.549377 623.453186,505.179169 614.442383,494.350830 
	C597.498718,473.989380 570.442871,467.372375 546.360962,478.743347 
	C524.739197,488.952698 513.307312,506.999573 513.156189,530.813965 
	C512.957397,562.147095 485.284546,590.211487 455.252594,589.595703 
	C446.443329,589.415039 436.784149,591.800659 428.851624,595.717834 
	C411.543549,604.264832 401.072083,618.658020 397.787842,638.205017 
	C393.654175,662.807617 405.025970,685.369446 426.027496,697.241211 
	C463.559326,718.457397 509.378143,692.518372 511.024384,649.406311 
	C511.656219,632.859070 516.295044,618.046326 528.149231,605.977783 
	C541.659485,592.223389 558.132568,587.409363 577.092896,588.734558 
	C597.973694,590.194092 620.938660,608.174866 625.881104,628.567810 
	C628.095032,637.702759 628.676880,647.225708 630.156921,656.547607 
	C632.772034,673.019043 641.090881,685.972290 654.941711,695.175537 
	C668.639526,704.277222 683.675781,706.909729 700.544128,703.150940 
M1605.986450,713.425903 
	C1605.986450,666.873901 1605.986450,620.321899 1605.986450,573.701660 
	C1591.265137,573.701660 1577.360107,573.701660 1563.013672,573.701660 
	C1563.013672,576.026733 1563.031494,578.000427 1563.010864,579.973755 
	C1562.757935,604.110352 1562.957031,628.264282 1562.040161,652.375793 
	C1561.611694,663.639771 1555.267456,672.276001 1544.317871,676.154541 
	C1532.425049,680.367126 1520.735596,680.428040 1510.952271,670.810425 
	C1503.993896,663.969910 1502.925537,654.957642 1502.864136,645.866333 
	C1502.713257,623.542969 1502.807739,601.217957 1502.784058,578.893616 
	C1502.782227,577.141479 1502.629272,575.389465 1502.532471,573.340942 
	C1489.321167,573.340942 1476.675781,573.458374 1464.034790,573.268921 
	C1460.275269,573.212524 1459.180908,574.496521 1459.203979,578.173340 
	C1459.349854,601.496399 1458.817505,624.833923 1459.455444,648.140747 
	C1460.005859,668.244568 1466.777588,686.303162 1481.336182,700.745422 
	C1500.501221,719.757385 1529.758667,724.375427 1551.580444,711.935303 
	C1555.387939,709.764771 1558.823364,706.941650 1563.288330,703.820312 
	C1562.825928,708.892700 1562.627319,713.003418 1562.047729,717.059753 
	C1560.435669,728.338440 1551.504395,737.917969 1541.269287,740.135742 
	C1529.641357,742.655457 1518.097534,741.776794 1506.656860,739.472168 
	C1499.270142,737.984070 1492.070068,735.569641 1484.300293,733.437012 
	C1484.300293,747.264160 1484.199463,760.889954 1484.464355,774.508728 
	C1484.489502,775.797974 1486.623901,777.823669 1488.096436,778.174133 
	C1494.870728,779.786560 1501.710693,781.306213 1508.613770,782.156799 
	C1523.837769,784.032593 1538.973877,784.627808 1554.102539,780.380249 
	C1586.100708,771.396362 1604.655884,746.479614 1605.986450,713.425903 
M1159.103394,666.447937 
	C1156.092529,662.119568 1152.168579,658.158752 1150.249268,653.390991 
	C1145.337036,641.188354 1145.634888,628.270447 1147.758789,615.544006 
	C1150.315186,600.225220 1159.236938,590.129700 1174.310425,585.638977 
	C1192.967651,580.080566 1211.801270,580.947876 1230.645996,584.146545 
	C1238.944580,585.555115 1247.126465,587.651428 1255.858643,589.543274 
	C1255.858643,575.639343 1255.911011,561.843506 1255.743408,548.050293 
	C1255.732056,547.106140 1254.177368,545.508057 1253.164429,545.351379 
	C1241.041870,543.475525 1228.934814,541.011597 1216.728394,540.270020 
	C1193.311157,538.847351 1170.216919,540.347290 1148.688110,551.467285 
	C1133.458862,559.333496 1121.256714,570.228210 1113.153198,585.339844 
	C1101.153320,607.717102 1100.392090,631.541626 1105.777100,655.665833 
	C1110.261475,675.755676 1121.234985,691.867004 1138.459229,703.504700 
	C1156.227173,715.509827 1176.179443,719.839050 1197.190430,719.564575 
	C1218.392822,719.287720 1239.225342,716.301086 1259.417358,709.315735 
	C1263.506470,707.901123 1264.831665,706.182251 1264.807861,701.968994 
	C1264.642944,672.808838 1264.724731,643.647339 1264.709351,614.486267 
	C1264.708496,612.876221 1264.549438,611.266235 1264.458862,609.560425 
	C1237.289917,609.560425 1210.567749,609.560425 1183.779663,609.560425 
	C1183.779663,623.129272 1183.779663,636.338989 1183.779663,649.834351 
	C1185.835571,649.834351 1187.491211,649.834473 1189.146729,649.834351 
	C1198.478271,649.833679 1207.811890,649.735962 1217.139038,649.940002 
	C1218.489136,649.969604 1220.931885,651.402710 1220.964966,652.259705 
	C1221.264526,660.028870 1221.140625,667.814392 1221.140625,675.786621 
	C1216.151001,676.208252 1211.726196,676.691956 1207.288208,676.937744 
	C1190.515015,677.866638 1173.893311,677.977844 1159.103394,666.447937 
M897.842651,671.500122 
	C897.842773,665.836487 898.058105,660.161743 897.767944,654.513000 
	C897.572510,650.708130 898.934204,649.719177 902.616455,649.755798 
	C920.105225,649.929932 937.598022,649.946472 955.086365,649.751038 
	C959.163025,649.705505 960.546936,650.810730 960.500732,655.043518 
	C960.293274,674.031006 960.568665,693.024231 960.299316,712.010132 
	C960.231750,716.775452 961.793945,717.971802 966.300171,717.853088 
	C977.120117,717.568298 987.957520,717.572937 998.777832,717.851379 
	C1003.246155,717.966309 1004.788208,716.828491 1004.773499,712.044312 
	C1004.603760,656.741394 1004.668213,601.437744 1004.650085,546.134338 
	C1004.649536,544.391052 1004.430969,542.647888 1004.332825,541.185425 
	C989.435974,541.185425 975.192932,541.185425 960.242188,541.185425 
	C960.242188,564.017151 960.242188,586.377869 960.242188,608.846802 
	C939.137512,608.846802 918.751282,608.846802 897.654541,608.846802 
	C897.654541,586.132996 897.654541,563.768616 897.654541,541.461182 
	C882.873413,541.461182 868.809082,541.461182 854.655884,541.461182 
	C854.502014,542.463562 854.317810,543.104187 854.317627,543.744751 
	C854.299744,600.380737 854.317383,657.016724 854.239197,713.652649 
	C854.234436,717.099976 855.718079,717.836792 858.778015,717.807434 
	C870.603821,717.694031 882.431519,717.775330 894.258301,717.738342 
	C895.358032,717.734863 896.456665,717.408508 897.842407,717.186096 
	C897.842407,702.117859 897.842407,687.308960 897.842651,671.500122 
M1390.889648,604.500000 
	C1390.889404,617.165039 1391.156372,629.838135 1390.773071,642.491516 
	C1390.588867,648.573364 1389.934937,654.847412 1388.183838,660.638245 
	C1381.938843,681.288086 1353.434204,683.231506 1340.516968,671.388123 
	C1333.780029,665.211304 1331.086182,657.243164 1330.978027,648.541504 
	C1330.690430,625.381531 1330.826416,602.216309 1330.794678,579.053162 
	C1330.792236,577.291687 1330.794434,575.530212 1330.794434,573.357788 
	C1316.768066,573.357788 1303.467529,573.357605 1290.166870,573.357971 
	C1286.881348,573.358032 1287.121338,575.699036 1287.123169,577.911560 
	C1287.131836,588.076843 1286.993652,598.244324 1287.157959,608.406982 
	C1287.427002,625.038086 1286.823730,641.776733 1288.535522,658.267883 
	C1290.767456,679.767090 1301.713013,696.968079 1320.369263,708.197754 
	C1341.095703,720.673523 1363.551758,721.905457 1386.342896,714.999451 
	C1414.387573,706.501526 1433.041870,681.469910 1433.814819,651.413086 
	C1434.440186,627.098999 1433.950806,602.756226 1433.933105,578.426147 
	C1433.931885,576.842285 1433.736938,575.258545 1433.634399,573.709595 
	C1419.164062,573.709595 1405.248901,573.709595 1390.889526,573.709595 
	C1390.889526,583.882446 1390.889526,593.691223 1390.889648,604.500000 
M520.293518,735.820557 
	C518.262207,740.703369 515.510803,745.417603 514.320862,750.497498 
	C508.310028,776.156860 519.945129,800.808533 541.198425,813.431519 
	C564.565674,827.309998 591.702271,823.394714 610.738098,804.128418 
	C630.922302,783.699829 633.109558,754.660522 616.543213,731.013794 
	C603.994751,713.102234 586.248474,704.588562 564.038269,706.838928 
	C544.724792,708.795837 530.672058,718.929016 520.293518,735.820557 
M1076.824341,690.500000 
	C1076.824341,651.580261 1076.824341,612.660583 1076.824341,573.342896 
	C1062.925537,573.342896 1049.785522,573.383423 1036.646118,573.316589 
	C1033.020752,573.298096 1033.291382,575.695801 1033.291626,578.084473 
	C1033.296265,623.084045 1033.335571,668.083801 1033.222778,713.083069 
	C1033.213257,716.925476 1034.579224,717.904297 1038.182739,717.827881 
	C1047.678345,717.626587 1057.181152,717.759399 1066.681030,717.759216 
	C1069.936646,717.759094 1073.192261,717.759216 1076.823975,717.759216 
	C1076.823975,708.456421 1076.823975,699.978210 1076.824341,690.500000 
M1072.366943,516.095093 
	C1063.115967,508.872742 1051.157104,507.986053 1041.028076,513.771301 
	C1033.044312,518.331238 1028.782349,528.674988 1030.259644,539.905762 
	C1031.425903,548.771545 1038.291504,556.693726 1047.279907,558.826355 
	C1057.487793,561.248352 1067.310669,560.820496 1074.485596,551.781738 
	C1082.849487,541.245056 1082.031372,527.003540 1072.366943,516.095093 
z"/>
<path fill="#8D83FD" opacity="1.000000" stroke="none" 
	d="
M700.154297,703.293091 
	C683.675781,706.909729 668.639526,704.277222 654.941711,695.175537 
	C641.090881,685.972290 632.772034,673.019043 630.156921,656.547607 
	C628.676880,647.225708 628.095032,637.702759 625.881104,628.567810 
	C620.938660,608.174866 597.973694,590.194092 577.092896,588.734558 
	C558.132568,587.409363 541.659485,592.223389 528.149231,605.977783 
	C516.295044,618.046326 511.656219,632.859070 511.024384,649.406311 
	C509.378143,692.518372 463.559326,718.457397 426.027496,697.241211 
	C405.025970,685.369446 393.654175,662.807617 397.787842,638.205017 
	C401.072083,618.658020 411.543549,604.264832 428.851624,595.717834 
	C436.784149,591.800659 446.443329,589.415039 455.252594,589.595703 
	C485.284546,590.211487 512.957397,562.147095 513.156189,530.813965 
	C513.307312,506.999573 524.739197,488.952698 546.360962,478.743347 
	C570.442871,467.372375 597.498718,473.989380 614.442383,494.350830 
	C623.453186,505.179169 627.357178,517.549377 627.822937,531.527161 
	C628.676453,557.143921 641.404541,575.393188 664.665588,585.475403 
	C672.046326,588.674438 680.792603,589.286011 689.002441,589.901489 
	C711.639404,591.598877 728.724487,602.643860 738.021362,622.561218 
	C753.076477,654.815002 737.816772,691.495605 703.401917,702.245239 
	C702.448059,702.543152 701.496643,702.848877 700.154297,703.293091 
z"/>
<path fill="#8D83FD" opacity="1.000000" stroke="none" 
	d="
M1605.977051,713.912476 
	C1604.655884,746.479614 1586.100708,771.396362 1554.102539,780.380249 
	C1538.973877,784.627808 1523.837769,784.032593 1508.613770,782.156799 
	C1501.710693,781.306213 1494.870728,779.786560 1488.096436,778.174133 
	C1486.623901,777.823669 1484.489502,775.797974 1484.464355,774.508728 
	C1484.199463,760.889954 1484.300293,747.264160 1484.300293,733.437012 
	C1492.070068,735.569641 1499.270142,737.984070 1506.656860,739.472168 
	C1518.097534,741.776794 1529.641357,742.655457 1541.269287,740.135742 
	C1551.504395,737.917969 1560.435669,728.338440 1562.047729,717.059753 
	C1562.627319,713.003418 1562.825928,708.892700 1563.288330,703.820312 
	C1558.823364,706.941650 1555.387939,709.764771 1551.580444,711.935303 
	C1529.758667,724.375427 1500.501221,719.757385 1481.336182,700.745422 
	C1466.777588,686.303162 1460.005859,668.244568 1459.455444,648.140747 
	C1458.817505,624.833923 1459.349854,601.496399 1459.203979,578.173340 
	C1459.180908,574.496521 1460.275269,573.212524 1464.034790,573.268921 
	C1476.675781,573.458374 1489.321167,573.340942 1502.532471,573.340942 
	C1502.629272,575.389465 1502.782227,577.141479 1502.784058,578.893616 
	C1502.807739,601.217957 1502.713257,623.542969 1502.864136,645.866333 
	C1502.925537,654.957642 1503.993896,663.969910 1510.952271,670.810425 
	C1520.735596,680.428040 1532.425049,680.367126 1544.317871,676.154541 
	C1555.267456,672.276001 1561.611694,663.639771 1562.040161,652.375793 
	C1562.957031,628.264282 1562.757935,604.110352 1563.010864,579.973755 
	C1563.031494,578.000427 1563.013672,576.026733 1563.013672,573.701660 
	C1577.360107,573.701660 1591.265137,573.701660 1605.986450,573.701660 
	C1605.986450,620.321899 1605.986450,666.873901 1605.977051,713.912476 
z"/>
<path fill="#8E84FD" opacity="1.000000" stroke="none" 
	d="
M1159.363770,666.691711 
	C1173.893311,677.977844 1190.515015,677.866638 1207.288208,676.937744 
	C1211.726196,676.691956 1216.151001,676.208252 1221.140625,675.786621 
	C1221.140625,667.814392 1221.264526,660.028870 1220.964966,652.259705 
	C1220.931885,651.402710 1218.489136,649.969604 1217.139038,649.940002 
	C1207.811890,649.735962 1198.478271,649.833679 1189.146729,649.834351 
	C1187.491211,649.834473 1185.835571,649.834351 1183.779663,649.834351 
	C1183.779663,636.338989 1183.779663,623.129272 1183.779663,609.560425 
	C1210.567749,609.560425 1237.289917,609.560425 1264.458862,609.560425 
	C1264.549438,611.266235 1264.708496,612.876221 1264.709351,614.486267 
	C1264.724731,643.647339 1264.642944,672.808838 1264.807861,701.968994 
	C1264.831665,706.182251 1263.506470,707.901123 1259.417358,709.315735 
	C1239.225342,716.301086 1218.392822,719.287720 1197.190430,719.564575 
	C1176.179443,719.839050 1156.227173,715.509827 1138.459229,703.504700 
	C1121.234985,691.867004 1110.261475,675.755676 1105.777100,655.665833 
	C1100.392090,631.541626 1101.153320,607.717102 1113.153198,585.339844 
	C1121.256714,570.228210 1133.458862,559.333496 1148.688110,551.467285 
	C1170.216919,540.347290 1193.311157,538.847351 1216.728394,540.270020 
	C1228.934814,541.011597 1241.041870,543.475525 1253.164429,545.351379 
	C1254.177368,545.508057 1255.732056,547.106140 1255.743408,548.050293 
	C1255.911011,561.843506 1255.858643,575.639343 1255.858643,589.543274 
	C1247.126465,587.651428 1238.944580,585.555115 1230.645996,584.146545 
	C1211.801270,580.947876 1192.967651,580.080566 1174.310425,585.638977 
	C1159.236938,590.129700 1150.315186,600.225220 1147.758789,615.544006 
	C1145.634888,628.270447 1145.337036,641.188354 1150.249268,653.390991 
	C1152.168579,658.158752 1156.092529,662.119568 1159.363770,666.691711 
z"/>
<path fill="#8E84FD" opacity="1.000000" stroke="none" 
	d="
M897.842529,672.000061 
	C897.842407,687.308960 897.842407,702.117859 897.842407,717.186096 
	C896.456665,717.408508 895.358032,717.734863 894.258301,717.738342 
	C882.431519,717.775330 870.603821,717.694031 858.778015,717.807434 
	C855.718079,717.836792 854.234436,717.099976 854.239197,713.652649 
	C854.317383,657.016724 854.299744,600.380737 854.317627,543.744751 
	C854.317810,543.104187 854.502014,542.463562 854.655884,541.461182 
	C868.809082,541.461182 882.873413,541.461182 897.654541,541.461182 
	C897.654541,563.768616 897.654541,586.132996 897.654541,608.846802 
	C918.751282,608.846802 939.137512,608.846802 960.242188,608.846802 
	C960.242188,586.377869 960.242188,564.017151 960.242188,541.185425 
	C975.192932,541.185425 989.435974,541.185425 1004.332825,541.185425 
	C1004.430969,542.647888 1004.649536,544.391052 1004.650085,546.134338 
	C1004.668213,601.437744 1004.603760,656.741394 1004.773499,712.044312 
	C1004.788208,716.828491 1003.246155,717.966309 998.777832,717.851379 
	C987.957520,717.572937 977.120117,717.568298 966.300171,717.853088 
	C961.793945,717.971802 960.231750,716.775452 960.299316,712.010132 
	C960.568665,693.024231 960.293274,674.031006 960.500732,655.043518 
	C960.546936,650.810730 959.163025,649.705505 955.086365,649.751038 
	C937.598022,649.946472 920.105225,649.929932 902.616455,649.755798 
	C898.934204,649.719177 897.572510,650.708130 897.767944,654.513000 
	C898.058105,660.161743 897.842773,665.836487 897.842529,672.000061 
z"/>
<path fill="#8D83FD" opacity="1.000000" stroke="none" 
	d="
M1390.889648,604.000000 
	C1390.889526,593.691223 1390.889526,583.882446 1390.889526,573.709595 
	C1405.248901,573.709595 1419.164062,573.709595 1433.634399,573.709595 
	C1433.736938,575.258545 1433.931885,576.842285 1433.933105,578.426147 
	C1433.950806,602.756226 1434.440186,627.098999 1433.814819,651.413086 
	C1433.041870,681.469910 1414.387573,706.501526 1386.342896,714.999451 
	C1363.551758,721.905457 1341.095703,720.673523 1320.369263,708.197754 
	C1301.713013,696.968079 1290.767456,679.767090 1288.535522,658.267883 
	C1286.823730,641.776733 1287.427002,625.038086 1287.157959,608.406982 
	C1286.993652,598.244324 1287.131836,588.076843 1287.123169,577.911560 
	C1287.121338,575.699036 1286.881348,573.358032 1290.166870,573.357971 
	C1303.467529,573.357605 1316.768066,573.357788 1330.794434,573.357788 
	C1330.794434,575.530212 1330.792236,577.291687 1330.794678,579.053162 
	C1330.826416,602.216309 1330.690430,625.381531 1330.978027,648.541504 
	C1331.086182,657.243164 1333.780029,665.211304 1340.516968,671.388123 
	C1353.434204,683.231506 1381.938843,681.288086 1388.183838,660.638245 
	C1389.934937,654.847412 1390.588867,648.573364 1390.773071,642.491516 
	C1391.156372,629.838135 1390.889404,617.165039 1390.889648,604.000000 
z"/>
<path fill="#8D83FD" opacity="1.000000" stroke="none" 
	d="
M520.480835,735.506104 
	C530.672058,718.929016 544.724792,708.795837 564.038269,706.838928 
	C586.248474,704.588562 603.994751,713.102234 616.543213,731.013794 
	C633.109558,754.660522 630.922302,783.699829 610.738098,804.128418 
	C591.702271,823.394714 564.565674,827.309998 541.198425,813.431519 
	C519.945129,800.808533 508.310028,776.156860 514.320862,750.497498 
	C515.510803,745.417603 518.262207,740.703369 520.480835,735.506104 
z"/>
<path fill="#8D84FD" opacity="1.000000" stroke="none" 
	d="
M1076.824219,691.000000 
	C1076.823975,699.978210 1076.823975,708.456421 1076.823975,717.759216 
	C1073.192261,717.759216 1069.936646,717.759094 1066.681030,717.759216 
	C1057.181152,717.759399 1047.678345,717.626587 1038.182739,717.827881 
	C1034.579224,717.904297 1033.213257,716.925476 1033.222778,713.083069 
	C1033.335571,668.083801 1033.296265,623.084045 1033.291626,578.084473 
	C1033.291382,575.695801 1033.020752,573.298096 1036.646118,573.316589 
	C1049.785522,573.383423 1062.925537,573.342896 1076.824341,573.342896 
	C1076.824341,612.660583 1076.824341,651.580261 1076.824219,691.000000 
z"/>
<path fill="#8E84FD" opacity="1.000000" stroke="none" 
	d="
M1072.624268,516.343872 
	C1082.031372,527.003540 1082.849487,541.245056 1074.485596,551.781738 
	C1067.310669,560.820496 1057.487793,561.248352 1047.279907,558.826355 
	C1038.291504,556.693726 1031.425903,548.771545 1030.259644,539.905762 
	C1028.782349,528.674988 1033.044312,518.331238 1041.028076,513.771301 
	C1051.157104,507.986053 1063.115967,508.872742 1072.624268,516.343872 
z"/>
</svg>