<svg height="1280" viewBox="0 0 2000 1307" width="1280" xmlns="http://www.w3.org/2000/svg"><path d="m0 0h2000v1307h-2000z" fill="#fff"/><g fill="#8b81fd"><path d="m0 0 9 1 9 2 12 6 10 8 9 11 4 8 3 11 3 26 4 10 5 9 10 11 11 7 10 4 13 2 17 2 11 4 10 6 6 5 7 9 5 8 3 8 1 7v19l-2 9-4 10-7 9-4 5-13 9-11 4-10 2h-11l-16-4-11-6-10-8-7-10-5-11-3-13-1-15-4-14-6-11-8-9-9-7-10-5-7-2-8-1h-10l-9 1-13 5-10 6-6 5-8 10-6 15-2 11-2 20-6 14-6 8-5 6-8 6-10 5-9 3-6 1h-9l-16-3-14-7-7-6v-2h-2l-9-13-4-10-2-7v-17l2-9 4-10 6-10 8-8 10-7 13-5 14-2 13-1 12-4 11-7 7-6 7-10 5-9 3-13 2-21 5-13 6-10 9-9 9-6 8-4 10-2z" transform="translate(570 472)"/><path d="m0 0h43l1 80 2 9 5 8 8 5 9 2 13-1 9-4 3-1v-2l5-5 4-12 1-79h43v147l-4 16-5 12-6 8-7 8-13 9-10 5-15 4h-35l-18-3-8-3v-44l9 3 12 3 14 2h12l14-3 8-5 5-7 3-10v-11l-8 6-9 5-7 2-8 1h-10l-15-3-14-7-10-8-8-9-8-16-4-12-2-19v-70z" transform="translate(1459 573)"/><path d="m0 0h35l22 3 10 3 1 1v43l-17-4-18-3h-33l-10 2-11 4-9 6-6 8-3 7-2 17 1 18 4 12 4 6 7 6 10 5 11 2 7 1h13l17-1v-26h-37v-41h80v99l-15 5-19 4-14 2h-36l-18-4-15-6-14-9-6-5v-2h-2l-9-12-8-16-4-15-1-9v-22l3-16 3-9 7-14 7-9 5-5 10-9 17-9 16-5z" transform="translate(1187 539)"/><path d="m0 0h42l1 1v67h63v-68h43v176l-1 1h-41l-1-1v-67h-63v67l-1 1h-42z" transform="translate(854 540)"/><path d="m0 0h44l1 81 4 10 4 6 8 5 9 2 14-1 10-5 4-5 4-10 1-4 1-79h43v84l-4 15-4 10-8 11-6 7-13 9-11 5-11 3-9 1h-14l-13-2-12-4-13-7-13-12-9-15-4-10-3-17z" transform="translate(1286 573)"/><path d="m0 0h22l10 3 11 6 10 8 10 15 4 11 1 6v16l-3 12-5 10-7 9-10 9-14 7-8 2h-20l-13-4-10-6-10-9-6-8-5-9-3-11v-20l4-13 6-10 7-9 13-9 11-5z" transform="translate(558 706)"/><path d="m0 0h43v143l-1 1h-42z" transform="translate(1033 573)"/><path d="m0 0h10l10 4 5 5 4 7 1 12-2 9-6 8-7 4-4 1h-11l-10-4-7-8-3-8v-10l4-10 8-7z" transform="translate(1049 509)"/></g></svg>